<svg id="logo-linkedin" xmlns="http://www.w3.org/2000/svg" width="25.039" height="25" viewBox="0 0 25.039 25">
  <path id="Path_10" data-name="Path 10" d="M23.945,0H1.055A1.05,1.05,0,0,0,0,1.055v22.93A1.043,1.043,0,0,0,1.055,25h22.93a1.05,1.05,0,0,0,1.055-1.055V1.055A1.111,1.111,0,0,0,23.945,0ZM7.422,21.289H3.711V9.375H7.422ZM5.547,7.734A2.148,2.148,0,1,1,7.7,5.586,2.118,2.118,0,0,1,5.547,7.734ZM21.289,21.289H17.578V15.508c0-1.367-.039-3.164-1.914-3.164-1.914,0-2.227,1.523-2.227,3.047v5.9H9.727V9.375h3.555v1.641h.039A3.927,3.927,0,0,1,16.836,9.1c3.75,0,4.453,2.461,4.453,5.664Z" fill="#fff"/>
</svg>
