<svg xmlns="http://www.w3.org/2000/svg" width="35.477" height="25" viewBox="0 0 35.477 25">
  <g id="logo-youtube" transform="translate(0 -9.5)">
    <path id="Path_14" data-name="Path 14" d="M35.144,14.877a7.847,7.847,0,0,0-1.386-3.548,5.061,5.061,0,0,0-3.548-1.5C25.166,9.5,17.738,9.5,17.738,9.5h0s-7.428,0-12.417.333a4.979,4.979,0,0,0-3.548,1.5C.721,12.382.388,14.877.388,14.877A49.525,49.525,0,0,0,0,20.642v2.716a57.639,57.639,0,0,0,.333,5.765,7.847,7.847,0,0,0,1.386,3.548,5.87,5.87,0,0,0,3.936,1.5c2.827.277,12.084.333,12.084.333s7.428,0,12.417-.388a4.979,4.979,0,0,0,3.548-1.5c1.053-1.053,1.386-3.548,1.386-3.548a49.526,49.526,0,0,0,.388-5.765V20.586C35.477,17.759,35.144,14.877,35.144,14.877ZM14.08,26.573V16.6l9.59,4.989Z" fill="#fff"/>
  </g>
</svg>
