<svg xmlns="http://www.w3.org/2000/svg" width="30.769" height="25" viewBox="0 0 30.769 25">
  <g id="logo-twitter" transform="translate(0 -6)">
    <path id="Path_9" data-name="Path 9" d="M30.769,8.981a13.419,13.419,0,0,1-3.606,1.01,6.357,6.357,0,0,0,2.788-3.51,12.527,12.527,0,0,1-3.99,1.538A6.43,6.43,0,0,0,21.3,6,6.289,6.289,0,0,0,15,12.3a7.338,7.338,0,0,0,.144,1.442A17.786,17.786,0,0,1,2.163,7.154,6.393,6.393,0,0,0,1.3,10.327a6.232,6.232,0,0,0,2.788,5.24A6.706,6.706,0,0,1,1.25,14.8v.1A6.3,6.3,0,0,0,6.3,21.1a6.466,6.466,0,0,1-1.683.24,10.122,10.122,0,0,1-1.2-.1,6.326,6.326,0,0,0,5.913,4.375A12.771,12.771,0,0,1,1.49,28.308a14.56,14.56,0,0,1-1.49-.1A18.318,18.318,0,0,0,9.663,31C21.3,31,27.644,21.385,27.644,13.019V12.2A13.276,13.276,0,0,0,30.769,8.981Z" fill="#fff"/>
  </g>
</svg>
